<?xml version="1.0" encoding="utf-8"?>
<!-- Generator: Adobe Illustrator 15.0.0, SVG Export Plug-In . SVG Version: 6.00 Build 0)  -->
<!DOCTYPE svg PUBLIC "-//W3C//DTD SVG 1.1//EN" "http://www.w3.org/Graphics/SVG/1.1/DTD/svg11.dtd">
<svg version="1.1" id="Layer_1" xmlns="http://www.w3.org/2000/svg" xmlns:xlink="http://www.w3.org/1999/xlink" x="0px" y="0px"
	 width="49.127px" height="37.05px" viewBox="0 0 49.127 37.05" enable-background="new 0 0 49.127 37.05" xml:space="preserve">
<path fill="#108254" d="M30.094,21.486c2.082-1.639,3.424-4.176,3.424-7.031c0-4.946-4.008-8.955-8.954-8.955
	c-4.946,0-8.954,4.008-8.954,8.955c0,2.854,1.34,5.392,3.422,7.031c-3.732,1.902-6.36,5.66-6.65,10.064h1.63
	c0.315-4.123,2.994-7.578,6.684-9.031c1.172,0.566,2.48,0.889,3.868,0.889c1.388,0,2.696-0.322,3.867-0.889
	c3.688,1.453,6.368,4.908,6.685,9.031h1.631C36.455,27.146,33.828,23.388,30.094,21.486 M24.563,21.781
	c-4.047,0-7.327-3.28-7.327-7.326c0-4.048,3.28-7.327,7.327-7.327c4.046,0,7.326,3.279,7.326,7.327
	C31.89,18.501,28.609,21.781,24.563,21.781"/>
</svg>
