<?xml version="1.0" encoding="utf-8"?>
<!-- Generator: Adobe Illustrator 15.0.0, SVG Export Plug-In . SVG Version: 6.00 Build 0)  -->
<!DOCTYPE svg PUBLIC "-//W3C//DTD SVG 1.1//EN" "http://www.w3.org/Graphics/SVG/1.1/DTD/svg11.dtd">
<svg version="1.1" id="Layer_1" xmlns="http://www.w3.org/2000/svg" xmlns:xlink="http://www.w3.org/1999/xlink" x="0px" y="0px"
	 width="49.127px" height="37.05px" viewBox="0 0 49.127 37.05" enable-background="new 0 0 49.127 37.05" xml:space="preserve">
<path fill="#108254" d="M41.692,6.17l-8.273,0.001V4.672c0-0.544-0.441-0.983-0.986-0.983h-15.74c-0.543,0-0.984,0.439-0.984,0.983
	v1.499L7.434,6.17c-0.543,0-0.983,0.442-0.983,0.985v25.222c0,0.545,0.44,0.984,0.983,0.984h5.51c0.544,0,0.986-0.439,0.986-0.984
	v-4.648l1.778-0.004v4.652c0,0.545,0.441,0.984,0.984,0.984h6.052c0.544,0,0.985-0.439,0.985-0.984v-5.203h1.667v5.203
	c0,0.545,0.441,0.984,0.984,0.984h6.051c0.545,0,0.986-0.439,0.986-0.984v-4.652l1.779,0.004v4.648c0,0.545,0.439,0.984,0.984,0.984
	h5.51c0.543,0,0.984-0.439,0.984-0.984V7.155C42.677,6.612,42.235,6.17,41.692,6.17 M15.708,25.757h-2.765
	c-0.544,0-0.984,0.441-0.984,0.986v4.646h-3.54V8.14l7.289-0.004V25.757z M31.448,31.39h-4.082v-5.201
	c0-0.545-0.439-0.986-0.984-0.986h-3.637c-0.545,0-0.985,0.441-0.985,0.986v5.201h-4.08V5.658h13.769V31.39z M40.706,31.39h-3.539
	v-4.646c0-0.545-0.441-0.986-0.984-0.986h-2.764V8.136H33.8c0.014,0.002,0.031,0.004,0.047,0.004h6.859V31.39z"/>
<path fill="#108254" d="M13.128,10.552h-1.899c-0.193,0-0.354,0.156-0.354,0.353v1.896c0,0.196,0.16,0.355,0.354,0.355h1.899
	c0.194,0,0.353-0.159,0.353-0.355v-1.896C13.481,10.708,13.323,10.552,13.128,10.552"/>
<path fill="#108254" d="M13.128,15.872h-1.899c-0.193,0-0.354,0.158-0.354,0.354v1.897c0,0.195,0.16,0.353,0.354,0.353h1.899
	c0.194,0,0.353-0.157,0.353-0.353v-1.897C13.481,16.03,13.323,15.872,13.128,15.872"/>
<path fill="#108254" d="M13.128,21.195h-1.899c-0.193,0-0.354,0.158-0.354,0.354v1.898c0,0.193,0.16,0.352,0.354,0.352h1.899
	c0.194,0,0.353-0.158,0.353-0.352v-1.898C13.481,21.353,13.323,21.195,13.128,21.195"/>
<path fill="#108254" d="M35.999,13.155h1.896c0.197,0,0.354-0.158,0.354-0.354v-1.897c0-0.194-0.156-0.353-0.354-0.353h-1.896
	c-0.195,0-0.354,0.158-0.354,0.353v1.897C35.646,12.997,35.804,13.155,35.999,13.155"/>
<path fill="#108254" d="M35.999,18.477h1.896c0.197,0,0.354-0.157,0.354-0.354v-1.896c0-0.195-0.156-0.354-0.354-0.354h-1.896
	c-0.195,0-0.354,0.158-0.354,0.354v1.896C35.646,18.319,35.804,18.477,35.999,18.477"/>
<path fill="#108254" d="M35.999,23.8h1.896c0.197,0,0.354-0.16,0.354-0.355v-1.896c0-0.195-0.156-0.354-0.354-0.354h-1.896
	c-0.195,0-0.354,0.158-0.354,0.354v1.896C35.646,23.64,35.804,23.8,35.999,23.8"/>
<path fill="#108254" d="M20.557,11.213h1.897c0.196,0,0.354-0.159,0.354-0.354V8.961c0-0.193-0.158-0.352-0.354-0.352h-1.897
	c-0.195,0-0.354,0.158-0.354,0.352v1.898C20.203,11.054,20.362,11.213,20.557,11.213"/>
<path fill="#108254" d="M20.557,16.534h1.897c0.196,0,0.354-0.158,0.354-0.354v-1.897c0-0.194-0.158-0.353-0.354-0.353h-1.897
	c-0.195,0-0.354,0.158-0.354,0.353v1.897C20.203,16.376,20.362,16.534,20.557,16.534"/>
<path fill="#108254" d="M20.557,21.855h1.897c0.196,0,0.354-0.156,0.354-0.354v-1.895c0-0.197-0.158-0.357-0.354-0.357h-1.897
	c-0.195,0-0.354,0.16-0.354,0.357v1.895C20.203,21.699,20.362,21.855,20.557,21.855"/>
<path fill="#108254" d="M26.673,11.213h1.896c0.195,0,0.354-0.159,0.354-0.354V8.961c0-0.193-0.158-0.352-0.354-0.352h-1.896
	c-0.197,0-0.355,0.158-0.355,0.352v1.898C26.317,11.054,26.476,11.213,26.673,11.213"/>
<path fill="#108254" d="M26.673,16.534h1.896c0.195,0,0.354-0.158,0.354-0.354v-1.897c0-0.194-0.158-0.353-0.354-0.353h-1.896
	c-0.197,0-0.355,0.158-0.355,0.353v1.897C26.317,16.376,26.476,16.534,26.673,16.534"/>
<path fill="#108254" d="M26.673,21.855h1.896c0.195,0,0.354-0.156,0.354-0.354v-1.895c0-0.197-0.158-0.357-0.354-0.357h-1.896
	c-0.197,0-0.355,0.16-0.355,0.357v1.895C26.317,21.699,26.476,21.855,26.673,21.855"/>
</svg>
