<?xml version="1.0" encoding="utf-8"?>
<!-- Generator: Adobe Illustrator 15.0.0, SVG Export Plug-In . SVG Version: 6.00 Build 0)  -->
<!DOCTYPE svg PUBLIC "-//W3C//DTD SVG 1.1//EN" "http://www.w3.org/Graphics/SVG/1.1/DTD/svg11.dtd">
<svg version="1.1" id="Layer_1" xmlns="http://www.w3.org/2000/svg" xmlns:xlink="http://www.w3.org/1999/xlink" x="0px" y="0px"
	 width="49.127px" height="37.05px" viewBox="0 0 49.127 37.05" enable-background="new 0 0 49.127 37.05" xml:space="preserve">
<path fill="#108254" d="M7.778,7.278v25.592c0,1.904,1.549,3.451,3.453,3.451h28.206c1.904,0,3.453-1.547,3.453-3.451V7.278
	c0-1.904-1.549-3.456-3.453-3.456H35.88V2.003c0-0.703-0.57-1.272-1.271-1.272c-0.703,0-1.273,0.569-1.273,1.272v1.819H17.332V2.003
	c0-0.703-0.569-1.272-1.272-1.272c-0.701,0-1.271,0.569-1.271,1.272v1.819h-3.557C9.327,3.822,7.778,5.374,7.778,7.278
	 M40.345,32.869c0,0.5-0.408,0.908-0.908,0.908H11.231c-0.5,0-0.908-0.408-0.908-0.908V13.021h30.022V32.869z M16.059,9.092
	c0.703,0,1.272-0.569,1.272-1.271V6.367h16.004v1.453c0,0.702,0.57,1.271,1.273,1.271s1.271-0.569,1.271-1.271V6.367h3.557
	c0.5,0,0.908,0.408,0.908,0.91v3.199H10.323V7.278c0-0.502,0.408-0.91,0.908-0.91h3.557v1.453
	C14.788,8.523,15.356,9.092,16.059,9.092"/>
<path fill="#108254" d="M16.86,19.002c0.123,0,0.248-0.02,0.371-0.057l0.651-0.199v10.949c0,0.703,0.571,1.271,1.274,1.271
	s1.271-0.568,1.271-1.271V17.047V17.03v-0.016v-0.045c-0.002-0.023-0.005-0.045-0.005-0.066c0,0,0-0.012-0.003-0.018
	c0-0.014-0.004-0.027-0.006-0.043c-0.002-0.014-0.004-0.027-0.008-0.043c0-0.006-0.002-0.01-0.002-0.018
	c-0.004-0.025-0.012-0.051-0.02-0.08c-0.003-0.008-0.005-0.018-0.008-0.027c0-0.004-0.002-0.01-0.004-0.014
	c-0.006-0.016-0.01-0.035-0.016-0.049c-0.004-0.01-0.008-0.021-0.01-0.031c-0.01-0.02-0.018-0.038-0.025-0.059
	c-0.004-0.01-0.008-0.018-0.012-0.026c-0.013-0.024-0.023-0.049-0.037-0.071c-0.066-0.128-0.156-0.24-0.26-0.334
	c0,0,0-0.001-0.004-0.002c-0.012-0.011-0.023-0.021-0.035-0.029c-0.004-0.005-0.008-0.009-0.012-0.012
	c-0.008-0.008-0.018-0.015-0.027-0.023c-0.008-0.006-0.016-0.01-0.023-0.016c-0.004-0.005-0.01-0.009-0.018-0.015
	c-0.01-0.007-0.021-0.013-0.033-0.023c-0.004-0.002-0.006-0.002-0.008-0.004c-0.133-0.087-0.281-0.149-0.443-0.182
	c-0.025-0.007-0.053-0.011-0.078-0.015c-0.012,0-0.02-0.002-0.029-0.002c-0.021-0.004-0.043-0.006-0.066-0.008h-0.029
	c-0.016-0.002-0.034-0.003-0.051-0.003c-0.006,0-0.012,0.001-0.016,0.001h-0.029c-0.027,0.002-0.057,0.004-0.082,0.008
	c-0.006,0-0.014,0-0.018,0c-0.016,0.002-0.029,0.004-0.043,0.006s-0.027,0.004-0.041,0.006c-0.008,0.003-0.012,0.003-0.02,0.004
	c-0.021,0.005-0.043,0.011-0.064,0.016c-0.01,0.002-0.023,0.007-0.033,0.01c-0.01,0.002-0.018,0.004-0.025,0.008l-0.018,0.004
	l-2.277,0.693c-0.672,0.206-1.051,0.917-0.848,1.588C15.809,18.649,16.317,19.002,16.86,19.002"/>
<path fill="#108254" d="M26.886,30.326c0.816,0.426,1.686,0.641,2.586,0.641s1.771-0.215,2.588-0.641
	c0.768-0.402,1.451-0.967,2.033-1.684c1.152-1.422,1.787-3.297,1.787-5.281c0-1.982-0.635-3.855-1.787-5.277
	c-0.582-0.717-1.266-1.285-2.033-1.685c-0.816-0.425-1.688-0.643-2.588-0.643s-1.77,0.218-2.586,0.643
	c-0.766,0.4-1.451,0.968-2.033,1.685c-1.153,1.422-1.788,3.295-1.788,5.277c0,1.984,0.635,3.859,1.788,5.281
	C25.435,29.36,26.121,29.924,26.886,30.326 M26.832,19.686c0.723-0.893,1.66-1.383,2.641-1.383s1.92,0.49,2.643,1.383
	c0.787,0.973,1.221,2.275,1.221,3.676c0,1.402-0.434,2.707-1.221,3.678c-0.723,0.893-1.662,1.383-2.643,1.383
	s-1.918-0.49-2.641-1.383c-0.787-0.971-1.221-2.275-1.221-3.678C25.611,21.961,26.044,20.658,26.832,19.686"/>
</svg>
