<?xml version="1.0" encoding="utf-8"?>
<!-- Generator: Adobe Illustrator 15.0.0, SVG Export Plug-In . SVG Version: 6.00 Build 0)  -->
<!DOCTYPE svg PUBLIC "-//W3C//DTD SVG 1.1//EN" "http://www.w3.org/Graphics/SVG/1.1/DTD/svg11.dtd">
<svg version="1.1" id="Layer_1" xmlns="http://www.w3.org/2000/svg" xmlns:xlink="http://www.w3.org/1999/xlink" x="0px" y="0px"
	 width="49.127px" height="37.05px" viewBox="0 0 49.127 37.05" enable-background="new 0 0 49.127 37.05" xml:space="preserve">
<path fill="#108254" d="M35.528,20.02c0.498-0.754,0.749-1.58,0.749-2.486c0-1.045-0.389-1.957-1.159-2.73
	c-0.774-0.772-1.689-1.159-2.747-1.159h-2.684c0.488-1.007,0.731-1.982,0.731-2.927c0-1.189-0.176-2.138-0.531-2.836
	c-0.359-0.702-0.875-1.22-1.557-1.548c-0.682-0.332-1.448-0.496-2.305-0.496c-0.517,0-0.976,0.186-1.373,0.564
	c-0.438,0.426-0.75,0.977-0.944,1.648c-0.192,0.671-0.348,1.314-0.464,1.926c-0.117,0.617-0.301,1.05-0.544,1.305
	c-0.497,0.54-1.041,1.191-1.632,1.952c-1.027,1.332-1.721,2.121-2.089,2.364h-4.178c-0.538,0-1,0.19-1.38,0.571
	c-0.383,0.382-0.572,0.842-0.572,1.381v9.76c0,0.541,0.189,0.998,0.572,1.381c0.38,0.381,0.842,0.572,1.38,0.572h4.392
	c0.224,0,0.925,0.203,2.104,0.609c1.252,0.436,2.353,0.771,3.303,0.998c0.952,0.23,1.914,0.344,2.892,0.344h1.417h0.55
	c1.433,0,2.586-0.408,3.461-1.229c0.875-0.816,1.306-1.932,1.299-3.348c0.608-0.781,0.911-1.686,0.911-2.713
	c0-0.223-0.016-0.441-0.045-0.654c0.389-0.684,0.58-1.416,0.58-2.197C35.665,20.705,35.621,20.354,35.528,20.02 M16.465,27.02
	c-0.193,0.193-0.423,0.291-0.687,0.291c-0.263,0-0.492-0.098-0.687-0.291s-0.29-0.422-0.29-0.686c0-0.266,0.096-0.492,0.29-0.686
	s0.424-0.293,0.687-0.293c0.264,0,0.493,0.1,0.687,0.293c0.191,0.193,0.288,0.42,0.288,0.686
	C16.753,26.598,16.657,26.826,16.465,27.02 M33.995,18.783c-0.219,0.469-0.489,0.709-0.814,0.717
	c0.152,0.176,0.278,0.416,0.381,0.725c0.102,0.311,0.152,0.594,0.152,0.848c0,0.701-0.27,1.307-0.807,1.814
	c0.184,0.324,0.273,0.676,0.273,1.053s-0.09,0.75-0.267,1.121c-0.179,0.371-0.42,0.637-0.726,0.801
	c0.051,0.305,0.076,0.59,0.076,0.854c0,1.697-0.976,2.547-2.928,2.547h-1.845c-1.333,0-3.07-0.371-5.218-1.115
	c-0.051-0.02-0.197-0.072-0.441-0.158s-0.423-0.15-0.54-0.191c-0.118-0.039-0.296-0.098-0.536-0.174
	c-0.238-0.076-0.432-0.133-0.578-0.17c-0.148-0.035-0.314-0.066-0.502-0.1c-0.188-0.029-0.349-0.045-0.482-0.045h-0.487v-9.76h0.487
	c0.163,0,0.346-0.047,0.543-0.137c0.197-0.092,0.4-0.23,0.61-0.412c0.208-0.182,0.404-0.363,0.587-0.542
	c0.183-0.178,0.387-0.403,0.61-0.672c0.22-0.268,0.396-0.483,0.527-0.647c0.126-0.164,0.286-0.373,0.478-0.625
	c0.194-0.254,0.311-0.407,0.352-0.459c0.559-0.69,0.951-1.154,1.173-1.388c0.417-0.438,0.72-0.991,0.909-1.668
	c0.187-0.677,0.344-1.315,0.465-1.914c0.122-0.602,0.313-1.033,0.578-1.295c0.975,0,1.628,0.237,1.955,0.715
	c0.323,0.477,0.486,1.214,0.486,2.211c0,0.6-0.245,1.416-0.732,2.447C27.249,14.196,27,15.009,27,15.596h5.37
	c0.51,0,0.962,0.197,1.358,0.588c0.396,0.391,0.596,0.845,0.596,1.365C34.325,17.905,34.213,18.317,33.995,18.783"/>
</svg>
