<?xml version="1.0" encoding="utf-8"?>
<!-- Generator: Adobe Illustrator 15.0.0, SVG Export Plug-In . SVG Version: 6.00 Build 0)  -->
<!DOCTYPE svg PUBLIC "-//W3C//DTD SVG 1.1//EN" "http://www.w3.org/Graphics/SVG/1.1/DTD/svg11.dtd">
<svg version="1.1" id="Layer_1" xmlns="http://www.w3.org/2000/svg" xmlns:xlink="http://www.w3.org/1999/xlink" x="0px" y="0px"
	 width="49.127px" height="37.05px" viewBox="0 0 49.127 37.05" enable-background="new 0 0 49.127 37.05" xml:space="preserve">
<path fill="#108254" d="M10.37,16.264h0.576l0.001,15.797c0,0.443,0.358,0.802,0.802,0.802h8.947c0.443,0,0.803-0.358,0.803-0.802
	V25.57h5.384l0.002,6.491c0,0.443,0.356,0.802,0.802,0.802h8.946c0.442,0,0.804-0.358,0.804-0.802V16.264h0.576
	c0.441,0,0.801-0.358,0.801-0.802v-1.6c0-0.272-0.138-0.526-0.369-0.674l-13.82-8.875c-0.264-0.169-0.601-0.169-0.867,0
	L9.936,13.189c-0.228,0.147-0.367,0.401-0.367,0.674v1.6C9.569,15.906,9.927,16.264,10.37,16.264 M11.172,14.301L24.19,5.94
	l13.021,8.361v0.36h-0.578c-0.442,0-0.8,0.359-0.8,0.801V31.26h-7.348v-6.494c0-0.442-0.357-0.801-0.799-0.801h-6.991
	c-0.441,0-0.8,0.358-0.8,0.801v6.494h-7.347V15.462c0-0.441-0.358-0.801-0.8-0.801h-0.577V14.301z"/>
</svg>
