<?xml version="1.0" encoding="utf-8"?>
<!-- Generator: Adobe Illustrator 15.0.0, SVG Export Plug-In . SVG Version: 6.00 Build 0)  -->
<!DOCTYPE svg PUBLIC "-//W3C//DTD SVG 1.1//EN" "http://www.w3.org/Graphics/SVG/1.1/DTD/svg11.dtd">
<svg version="1.1" id="Layer_1" xmlns="http://www.w3.org/2000/svg" xmlns:xlink="http://www.w3.org/1999/xlink" x="0px" y="0px"
	 width="49.127px" height="37.05px" viewBox="0 0 49.127 37.05" enable-background="new 0 0 49.127 37.05" xml:space="preserve">
<path fill="#108254" d="M45.245,23.419c-1.369-0.582-4.014-1.125-6.348-1.604c-1.342-0.275-3.006-0.617-3.354-0.781
	c-1.404-1-2.822-1.903-4.219-2.688s-2.941-1.551-4.756-1.821c-1.258-0.187-2.542-0.312-3.818-0.373
	c-3.824-0.181-6.998-0.032-9.99,0.471c-0.32,0.054-0.639,0.114-0.949,0.171c-0.283,0.053-0.576,0.109-0.861,0.158
	c-0.1,0.018-0.191,0.053-0.277,0.104l-5.791,3.649c-2.83,0.427-3.432,5.317-3.494,5.925c-0.156,1.276-0.232,2.627,0.666,3.881
	c0.625,0.873,1.502,1.271,2.676,1.222l1.459,0.002c0.418,2.11,2.281,3.703,4.512,3.703c2.227,0,4.088-1.593,4.508-3.7l19.099,0.01
	c0.42,2.102,2.281,3.69,4.506,3.69c0.896,0,1.766-0.257,2.512-0.744c1.047-0.683,1.754-1.746,1.996-2.942l3.701,0.002
	c0.717,0,0.877-0.783,0.953-1.158C48.29,29.052,48.409,24.761,45.245,23.419 M26.347,18.02c1.57,0.235,2.965,0.929,4.238,1.644
	c0.959,0.538,1.928,1.137,2.898,1.785H21.242v-3.84c0.469,0.012,0.947,0.029,1.436,0.054C23.906,17.72,25.14,17.839,26.347,18.02
	 M11.353,18.416c0.248-0.044,0.496-0.091,0.736-0.136c0.305-0.058,0.617-0.116,0.922-0.167c2.084-0.352,4.268-0.521,6.719-0.523
	v3.859H6.535L11.353,18.416z M10.701,33.925c-1.703,0-3.086-1.383-3.086-3.084s1.383-3.086,3.086-3.086
	c1.699,0,3.082,1.385,3.082,3.086S12.4,33.925,10.701,33.925 M40.499,33.427c-0.5,0.326-1.084,0.498-1.686,0.498
	c-1.699,0-3.082-1.383-3.082-3.084s1.383-3.086,3.082-3.086c1.703,0,3.086,1.385,3.086,3.086
	C41.899,31.886,41.376,32.852,40.499,33.427 M46.507,30.239l-3.137-0.001c-0.297-2.251-2.227-3.992-4.557-3.992
	c-2.328,0-4.256,1.739-4.553,3.987l-19.007-0.008c-0.303-2.244-2.229-3.979-4.553-3.979c-2.326,0-4.252,1.733-4.555,3.973H4.712
	c-0.006,0.002-0.023,0-0.033,0.002c-0.678,0.033-1.066-0.133-1.396-0.594c-0.586-0.815-0.527-1.722-0.395-2.824v-0.01
	c0.109-1.019,0.516-2.808,1.221-3.83h32.882c0.449,0.097,0.979,0.205,1.602,0.334c2.152,0.44,4.832,0.991,6.063,1.514
	c0.707,0.3,1.232,0.876,1.563,1.712C46.749,27.866,46.646,29.501,46.507,30.239"/>
<path fill="#108254" d="M30.743,13.453c-2.258,0-4.291-1.268-5.293-3.264h-3.679l-0.965,0.971c-0.229,0.228-0.631,0.228-0.859,0
	l-0.967-0.971l-0.051,0.001l-0.965,0.97c-0.23,0.228-0.633,0.228-0.859,0l-0.969-0.971l-0.725,0.001
	c-1.467-0.001-2.656-1.192-2.656-2.657c0-1.465,1.191-2.656,2.656-2.657H25.45c1.002-1.996,3.035-3.264,5.293-3.262
	c3.264,0,5.92,2.656,5.92,5.92C36.663,10.797,34.007,13.453,30.743,13.453 M21.521,8.975h4.32c0.244,0,0.465,0.146,0.559,0.372
	c0.734,1.756,2.439,2.891,4.344,2.891c2.594,0.002,4.705-2.11,4.705-4.705c0-2.595-2.111-4.705-4.705-4.705
	c-1.904,0-3.609,1.133-4.344,2.889c-0.094,0.227-0.314,0.373-0.561,0.372L15.412,6.09c-0.795-0.001-1.443,0.647-1.443,1.443
	c0,0.796,0.648,1.442,1.443,1.442h0.977c0.16,0,0.316,0.063,0.43,0.179l0.717,0.717l0.713-0.717c0.113-0.115,0.27-0.181,0.43-0.179
	h0.553c0.162,0,0.316,0.063,0.43,0.179l0.717,0.717l0.717-0.717C21.205,9.039,21.359,8.975,21.521,8.975"/>
<path fill="#108254" d="M32.784,9.318c-0.982,0-1.781-0.801-1.783-1.785c0-0.982,0.801-1.784,1.783-1.784
	c0.984,0.002,1.785,0.802,1.785,1.784C34.569,8.517,33.769,9.318,32.784,9.318 M32.784,6.963c-0.313,0-0.566,0.256-0.57,0.569
	c0,0.313,0.258,0.57,0.57,0.57c0.316,0,0.57-0.258,0.57-0.57C33.354,7.219,33.101,6.963,32.784,6.963"/>
</svg>
