<?xml version="1.0" encoding="utf-8"?>
<!-- Generator: Adobe Illustrator 15.0.0, SVG Export Plug-In . SVG Version: 6.00 Build 0)  -->
<!DOCTYPE svg PUBLIC "-//W3C//DTD SVG 1.1//EN" "http://www.w3.org/Graphics/SVG/1.1/DTD/svg11.dtd">
<svg version="1.1" id="Layer_1" xmlns="http://www.w3.org/2000/svg" xmlns:xlink="http://www.w3.org/1999/xlink" x="0px" y="0px"
	 width="49.127px" height="37.05px" viewBox="0 0 49.127 37.05" enable-background="new 0 0 49.127 37.05" xml:space="preserve">
<path fill="#108254" d="M37.996,18.725c0.09,0.229,0.154,0.465,0.205,0.705c0.363-0.158,0.779-0.252,1.24-0.273
	c-0.266-1.242-0.896-2.475-2.266-3.056c-1.158-0.492-3.395-0.95-5.369-1.356c-1.137-0.233-2.543-0.521-2.838-0.662
	c-1.188-0.845-2.387-1.608-3.564-2.272c-1.184-0.664-2.49-1.312-4.025-1.539c-1.063-0.158-2.148-0.265-3.229-0.315
	c-3.234-0.156-5.918-0.03-8.447,0.395c-0.271,0.047-0.541,0.098-0.805,0.147c-0.238,0.044-0.486,0.09-0.729,0.132
	c-0.082,0.014-0.162,0.045-0.235,0.09l-4.897,3.085c-2.393,0.359-2.902,4.499-2.955,5.01c-0.133,1.08-0.195,2.223,0.564,3.281
	c0.527,0.738,1.268,1.078,2.262,1.035h1.236c0.273,1.393,1.297,2.51,2.629,2.938c0.025-0.432,0.119-0.857,0.279-1.254
	c-0.99-0.369-1.703-1.316-1.703-2.438c0-1.438,1.17-2.609,2.607-2.609c0.533,0,1.016,0.178,1.426,0.453
	c0.336-0.295,0.746-0.521,1.229-0.66c-0.695-0.658-1.623-1.068-2.654-1.068c-1.965,0-3.592,1.465-3.85,3.359H2.894
	c-0.006,0.002-0.02,0-0.029,0.002c-0.572,0.025-0.902-0.113-1.181-0.504c-0.495-0.688-0.446-1.455-0.333-2.385l0.002-0.012
	c0.09-0.861,0.434-2.374,1.029-3.24h27.811c0.381,0.082,0.826,0.175,1.357,0.282c1.818,0.375,4.084,0.838,5.125,1.282
	C37.273,17.531,37.718,18.018,37.996,18.725 M15.595,14.435H4.434l4.075-2.567c0.211-0.037,0.42-0.078,0.625-0.114
	c0.254-0.048,0.521-0.099,0.779-0.141c1.762-0.297,3.607-0.441,5.682-0.443V14.435z M16.873,14.435v-3.248
	c0.398,0.009,0.803,0.024,1.217,0.045c1.037,0.048,2.082,0.15,3.102,0.302c1.33,0.199,2.51,0.785,3.584,1.39
	c0.811,0.455,1.633,0.963,2.451,1.511H16.873z"/>
<path fill="#108254" d="M45.519,22.289c-1.159-0.492-3.395-0.951-5.369-1.355c-1.135-0.232-2.542-0.521-2.836-0.66
	c-1.188-0.846-2.387-1.611-3.568-2.273c-1.182-0.664-2.488-1.313-4.021-1.542c-1.063-0.158-2.15-0.264-3.23-0.314
	c-3.234-0.154-5.918-0.027-8.449,0.396c-0.27,0.046-0.539,0.096-0.801,0.145c-0.242,0.047-0.488,0.094-0.73,0.135
	c-0.084,0.014-0.16,0.045-0.232,0.09l-4.898,3.084c-2.393,0.361-2.902,4.498-2.957,5.01c-0.133,1.08-0.195,2.223,0.564,3.283
	c0.529,0.736,1.27,1.076,2.262,1.035h1.236c0.352,1.781,1.928,3.133,3.814,3.133c1.883,0,3.459-1.35,3.813-3.129l16.154,0.006
	c0.357,1.779,1.93,3.123,3.811,3.123c0.758,0,1.492-0.217,2.125-0.631c0.885-0.578,1.482-1.477,1.686-2.488l3.133,0.002
	c0.607,0,0.74-0.662,0.805-0.98C48.093,27.053,48.195,23.426,45.519,22.289 M29.535,17.725c1.332,0.197,2.51,0.783,3.586,1.391
	c0.811,0.455,1.633,0.963,2.451,1.51H25.218v-3.248c0.395,0.01,0.801,0.025,1.215,0.045C27.472,17.469,28.515,17.573,29.535,17.725
	 M16.855,18.057c0.209-0.035,0.42-0.076,0.623-0.111c0.255-0.051,0.521-0.1,0.777-0.143c1.766-0.297,3.609-0.439,5.684-0.443v3.266
	h-11.16L16.855,18.057z M16.302,31.176c-1.439,0-2.61-1.17-2.61-2.609c0-1.438,1.171-2.609,2.61-2.609
	c1.438,0,2.607,1.172,2.607,2.609C18.91,30.006,17.74,31.176,16.302,31.176 M41.503,30.752c-0.422,0.279-0.914,0.424-1.424,0.424
	c-1.438,0-2.607-1.17-2.607-2.609c0-1.438,1.17-2.609,2.607-2.609c1.439,0,2.607,1.172,2.607,2.609
	C42.687,29.453,42.246,30.27,41.503,30.752 M46.587,28.059l-2.654-0.002c-0.25-1.9-1.883-3.377-3.854-3.377
	c-1.97,0-3.6,1.475-3.852,3.373l-16.077-0.006c-0.253-1.898-1.882-3.367-3.849-3.367s-3.596,1.467-3.852,3.363l-1.213-0.002
	c-0.006,0.002-0.02,0.002-0.029,0.002c-0.57,0.029-0.902-0.115-1.18-0.502c-0.494-0.691-0.447-1.457-0.334-2.387v-0.012
	c0.092-0.859,0.436-2.375,1.033-3.238h27.811c0.379,0.08,0.826,0.174,1.354,0.283c1.82,0.371,4.088,0.838,5.127,1.277
	c0.598,0.256,1.043,0.74,1.322,1.449C46.791,26.051,46.703,27.436,46.587,28.059"/>
</svg>
