<?xml version="1.0" encoding="utf-8"?>
<!-- Generator: Adobe Illustrator 15.0.0, SVG Export Plug-In . SVG Version: 6.00 Build 0)  -->
<!DOCTYPE svg PUBLIC "-//W3C//DTD SVG 1.1//EN" "http://www.w3.org/Graphics/SVG/1.1/DTD/svg11.dtd">
<svg version="1.1" id="Layer_1" xmlns="http://www.w3.org/2000/svg" xmlns:xlink="http://www.w3.org/1999/xlink" x="0px" y="0px"
	 width="49.127px" height="37.05px" viewBox="0 0 49.127 37.05" enable-background="new 0 0 49.127 37.05" xml:space="preserve">
<path fill="#FFFFFF" stroke="#108254" stroke-miterlimit="10" d="M36.2,18.221h-1.52c0-4.95-4.041-8.979-9.004-8.979V7.725
	C31.483,7.725,36.2,12.434,36.2,18.221z"/>
<path fill="#FFFFFF" stroke="#108254" stroke-miterlimit="10" d="M25.677,10.343v1.517c3.52,0,6.377,2.851,6.377,6.361h1.52
	C33.573,13.875,30.032,10.343,25.677,10.343z"/>
<path fill="#108254" d="M25.374,3.188c-8.229,0-14.916,6.671-14.916,14.877c0,8.205,6.687,14.877,14.916,14.877
	c0.508,0,0.918-0.408,0.918-0.916c0-0.506-0.41-0.922-0.918-0.922c-7.209,0-13.075-5.848-13.075-13.039S18.165,5.024,25.374,5.024
	c7.211,0,13.074,5.849,13.074,13.041c0,3.007-1.602,5.986-3.898,7.244c-0.834,0.459-1.738,0.688-2.701,0.695
	c0.58-0.342,1.08-0.811,1.455-1.393c0.07-0.111,0.168-0.211,0.217-0.33c0.299-0.717,0.326-1.535,0.504-2.293
	c0.225-0.966-4.254-2.86-4.641-1.649c-0.139,0.447-0.357,1.862-0.639,2.235c-0.254,0.334-0.869,0.178-1.258-0.152
	c-1.021-0.866-2.158-2.144-3.157-3.147c-0.027-0.027-0.058-0.059-0.084-0.084c-0.026-0.027-0.059-0.059-0.086-0.084
	c-1.008-0.998-2.287-2.131-3.156-3.15c-0.332-0.388-0.486-1.006-0.152-1.255c0.375-0.285,1.793-0.493,2.242-0.636
	c1.215-0.387-0.686-4.853-1.657-4.631c-0.759,0.179-1.579,0.205-2.298,0.503c-0.125,0.054-0.218,0.146-0.33,0.217
	c-2.555,1.615-2.885,5.542-0.387,8.464c0.949,1.118,1.939,2.204,2.96,3.255l-0.004,0.004c0.027,0.027,0.059,0.057,0.086,0.086
	c0.031,0.027,0.056,0.053,0.079,0.084l0.01-0.004c1.057,1.02,2.314,2.518,4.352,3.873c4.299,2.859,7.592,2.064,9.533,1.002
	c3.354-1.842,4.852-5.774,4.852-8.851C40.29,9.859,33.597,3.188,25.374,3.188"/>
</svg>
